<svg id="visual" viewBox="0 0 1440 1024" width="1440" height="1024" xmlns="http://www.w3.org/2000/svg" xmlns:xlink="http://www.w3.org/1999/xlink" version="1.1"><rect x="0" y="0" width="1440" height="1024" fill="#fcfdfd"></rect><path d="M0 813L60 805.8C120 798.7 240 784.3 360 775C480 765.7 600 761.3 720 765C840 768.7 960 780.3 1080 785.2C1200 790 1320 788 1380 787L1440 786L1440 1025L1380 1025C1320 1025 1200 1025 1080 1025C960 1025 840 1025 720 1025C600 1025 480 1025 360 1025C240 1025 120 1025 60 1025L0 1025Z" fill="#c2d0be" stroke-linecap="round" stroke-linejoin="miter"></path></svg>