<?xml version="1.0" standalone="no"?>
<!DOCTYPE svg PUBLIC "-//W3C//DTD SVG 20010904//EN"
 "http://www.w3.org/TR/2001/REC-SVG-20010904/DTD/svg10.dtd">
<svg version="1.0" xmlns="http://www.w3.org/2000/svg"
 width="512.000000pt" height="512.000000pt" viewBox="0 0 512.000000 512.000000"
 preserveAspectRatio="xMidYMid meet">
<metadata>
Created by potrace 1.14, written by Peter Selinger 2001-2017
</metadata>
<g transform="translate(0.000000,512.000000) scale(0.100000,-0.100000)"
fill="#000000" stroke="none">
<path d="M4519 5089 c-17 -19 -56 -72 -86 -118 -30 -46 -67 -97 -82 -114 -368
-421 -843 -688 -1451 -815 -80 -17 -170 -33 -200 -37 -30 -3 -82 -10 -115 -15
-33 -5 -78 -12 -100 -15 -22 -3 -51 -7 -65 -10 -14 -4 -36 -8 -50 -11 -111
-22 -270 -78 -400 -142 -63 -30 -117 -59 -120 -62 -3 -4 -16 -13 -30 -20 -54
-28 -169 -121 -250 -201 -284 -281 -446 -658 -454 -1059 -3 -135 10 -299 30
-362 5 -16 10 -37 20 -85 17 -82 108 -297 163 -387 13 -20 22 -39 20 -40 -2
-2 -47 -30 -99 -61 -381 -230 -668 -496 -834 -772 -106 -178 -188 -424 -211
-633 -7 -69 16 -114 65 -123 79 -16 104 15 130 162 80 443 373 809 943 1179
l129 84 80 -81 c44 -45 105 -101 136 -124 65 -50 160 -117 166 -117 2 0 35
-17 73 -38 153 -85 369 -154 573 -186 92 -14 447 -16 510 -3 23 5 50 10 135
23 130 21 357 100 520 181 92 46 308 180 325 202 3 4 25 22 50 41 81 63 221
203 302 304 136 169 232 327 338 561 71 155 158 453 186 635 2 19 9 58 14 85
5 28 11 75 14 105 3 30 9 91 13 135 10 100 10 533 0 640 -12 129 -21 207 -32
295 -14 105 -17 129 -26 175 -5 28 -12 66 -15 85 -4 28 -71 335 -89 415 -32
133 -88 312 -102 326 -10 10 -35 21 -55 24 -34 6 -41 4 -69 -26z"/>
</g>
</svg>
